<svg width="381" height="77" viewBox="0 0 381 77" fill="none" xmlns="http://www.w3.org/2000/svg">
<path d="M44.7706 12.18C44.7706 12.18 5.30056 5.18001 0.920565 13.92C0.920565 13.92 -2.00944 26.14 11.1506 43.6C11.3306 43.85 6.41056 52.92 6.09056 53.6C4.6422 56.5308 3.34712 59.5348 2.21056 62.6C1.39056 64.94 -1.30944 73.36 0.770564 75.28C1.22881 75.6492 1.79273 75.8629 2.38056 75.89C6.38056 76.44 50.7306 76.45 50.6206 75.07L44.7706 12.18Z" fill="url(#paint0_linear_119_1171)"/>
<path opacity="0.56" d="M44.7707 12.18C44.7707 12.18 5.3007 5.18001 0.920704 13.92C0.920704 13.92 -2.0093 26.14 11.1507 43.6C11.1359 43.7658 11.0847 43.9263 11.0007 44.07C11.3122 44.1561 11.6164 44.2665 11.9107 44.4C-0.469296 27.49 2.3407 15.71 2.3407 15.71C6.2507 7.93001 38.0307 12.63 44.8807 13.71C44.7707 12.76 44.7707 12.18 44.7707 12.18Z" fill="#E563E2"/>
<g opacity="0.55">
<path opacity="0.55" d="M31.4604 64.52C22.7004 64.52 14.3604 64.3 14.2004 64.28C13.5117 64.2385 12.8522 63.9873 12.3104 63.56C11.6904 63.03 9.76043 61.39 12.9304 52.89C13.6143 51.1572 14.4024 49.4675 15.2904 47.83L15.9304 46.6C16.0004 46.46 16.3604 45.83 16.8404 45C17.3204 44.17 18.5504 42.09 19.1904 40.92C9.68043 28.92 11.8004 20.31 11.9004 19.92L12.0704 19.49C15.5804 13.16 39.2104 16.42 46.3804 17.57L47.4504 17.74L52.0604 62.64L51.5704 63.25C50.7704 64.27 40.8504 64.52 31.4604 64.52ZM14.1504 60.91H14.5004C17.6204 61.3 43.2604 61.21 49.0204 60.66L44.9204 20.72C31.6404 18.72 16.7604 18.31 14.5504 21.15C14.3404 22.5 13.7704 29.62 21.9304 39.44C22.8604 40.55 22.7904 40.67 19.1604 46.9L18.3304 48.32L17.6904 49.57C16.865 51.0766 16.1336 52.633 15.5004 54.23C14.0404 58.16 13.8304 60.41 14.0404 60.91C14.0404 60.91 14.0804 60.91 14.1504 60.91Z" fill="#EA9476"/>
</g>
<g style="mix-blend-mode:multiply" opacity="0.53">
<path d="M23.3906 76.23C36.4406 76.23 50.6406 75.85 50.5806 75.07C50.5806 75.07 47.2206 38.9 45.5806 21.45L32.6906 10.98L23.3906 76.23Z" fill="#6A0B96"/>
</g>
<path d="M336.241 12.18C336.241 12.18 375.721 5.18001 380.101 13.92C380.101 13.92 383.031 26.14 369.871 43.6C369.681 43.85 374.611 52.92 374.931 53.6C376.379 56.5308 377.674 59.5348 378.811 62.6C379.591 64.92 382.291 73.34 380.251 75.26C379.79 75.6312 379.222 75.845 378.631 75.87C374.631 76.42 330.281 76.43 330.401 75.05L336.241 12.18Z" fill="url(#paint1_linear_119_1171)"/>
<path opacity="0.56" d="M336.241 12.18C336.241 12.18 375.721 5.18001 380.101 13.92C380.101 13.92 383.031 26.14 369.871 43.6C369.871 43.6 369.871 43.8 370.021 44.07C369.706 44.1561 369.398 44.2664 369.101 44.4C381.451 27.45 378.641 15.67 378.641 15.67C374.731 7.89001 342.951 12.59 336.101 13.67L336.241 12.18Z" fill="#E563E2"/>
<g opacity="0.55">
<path opacity="0.55" d="M329.41 63.27L328.91 62.66L333.52 17.76L334.6 17.59C341.76 16.44 365.4 13.18 368.91 19.51L369.08 19.94C369.17 20.31 371.3 28.94 361.79 40.94C362.43 42.11 363.56 44.05 364.13 45.02C364.7 45.99 364.98 46.48 365.05 46.62L365.68 47.85C366.576 49.4852 367.367 51.1753 368.05 52.91C371.21 61.41 369.29 63.05 368.66 63.58C368.123 64.0082 367.466 64.2597 366.78 64.3C366.62 64.3 358.28 64.54 349.51 64.54C340.12 64.52 330.25 64.27 329.41 63.27ZM366.94 60.94C367.15 60.44 366.94 58.19 365.47 54.26C364.84 52.6631 364.112 51.1068 363.29 49.6L362.64 48.35C362.56 48.19 362.24 47.64 361.82 46.93C358.19 40.7 358.12 40.58 359.05 39.47C367.21 29.65 366.63 22.53 366.43 21.18C364.22 18.34 349.34 18.73 336.05 20.75L331.95 60.69C337.71 61.24 363.35 61.33 366.48 60.94H366.83C366.89 60.91 366.94 60.91 366.94 60.94Z" fill="#EA9476"/>
</g>
<g style="mix-blend-mode:multiply" opacity="0.53">
<path d="M357.591 76.23C344.541 76.23 330.331 75.85 330.401 75.07C330.401 75.07 333.761 38.9 335.401 21.45L348.281 10.98L357.591 76.23Z" fill="#6A0B96"/>
</g>
<path d="M32.1904 16.18L33.9404 61.98C34.2504 70.26 39.9404 76.78 46.9404 76.78H337.29C344.46 76.78 350.29 69.84 350.29 61.27V15.51C350.29 6.94 344.48 0 337.29 0H45.1604C37.7704 0 31.8604 7.38 32.1904 16.18Z" fill="url(#paint2_linear_119_1171)"/>
<path style="mix-blend-mode:hard-light" opacity="0.56" d="M32.1904 16.18L33.9404 61.98C34.2504 70.26 39.9404 76.78 46.9404 76.78H337.29C344.46 76.78 350.29 69.84 350.29 61.27V15.51C350.29 6.94 344.48 0 337.29 0H45.1604C37.7704 0 31.8604 7.38 32.1904 16.18Z" fill="url(#paint3_radial_119_1171)"/>
<path d="M337.29 0H45.1604C37.7604 0 31.8604 7.38 32.1604 16.21L32.2204 17.59C32.8104 9.73 38.3304 3.49 45.1304 3.49C69.3504 3.49 187.97 5.23 187.97 5.23C187.97 5.23 304.11 3.49 337.26 3.49C344.44 3.49 350.26 10.43 350.26 19V15.51C350.28 6.94 344.47 0 337.29 0Z" fill="#E563E2"/>
<g opacity="0.71">
<path opacity="0.71" d="M350.281 62.85H33.7705L33.9005 66.34H350.281V62.85Z" fill="#EA9476"/>
<path opacity="0.71" d="M32.2005 13.96H350.28V13.76C350.278 12.6566 350.178 11.5557 349.98 10.47H32.4905C32.277 11.6207 32.1798 12.7899 32.2005 13.96Z" fill="#EA9476"/>
</g>
<defs>
<linearGradient id="paint0_linear_119_1171" x1="25.2806" y1="76.23" x2="25.2806" y2="9.57002" gradientUnits="userSpaceOnUse">
<stop offset="0.46" stop-color="#AC39DE"/>
<stop offset="0.88" stop-color="#D03BEE"/>
</linearGradient>
<linearGradient id="paint1_linear_119_1171" x1="146585" y1="5548.12" x2="146585" y2="1102.57" gradientUnits="userSpaceOnUse">
<stop offset="0.4375" stop-color="#D238F0"/>
<stop offset="0.890625" stop-color="#AD3ADF"/>
</linearGradient>
<linearGradient id="paint2_linear_119_1171" x1="191.23" y1="76.81" x2="191.23" y2="0" gradientUnits="userSpaceOnUse">
<stop offset="0.28" stop-color="#AA38DD"/>
<stop offset="0.81" stop-color="#CD46EB"/>
</linearGradient>
<radialGradient id="paint3_radial_119_1171" cx="0" cy="0" r="1" gradientUnits="userSpaceOnUse" gradientTransform="translate(185.29 53.3736) scale(174.16 73.1472)">
<stop offset="0.41" stop-color="#C241E7"/>
<stop offset="0.48" stop-color="#B73DE2" stop-opacity="0.46"/>
<stop offset="0.71" stop-color="#EF92ED" stop-opacity="0"/>
</radialGradient>
</defs>
</svg>
